<svg width="27" height="26" viewBox="0 0 27 26" fill="none" xmlns="http://www.w3.org/2000/svg">
<circle cx="13" cy="13" r="13" fill="#DC0000"/>
<circle cx="13" cy="13" r="10" fill="black"/>
<line x1="1.75" y1="19.628" x2="25.6404" y2="5.83491" stroke="black" stroke-width="5"/>
<path d="M15.0034 11.4545C14.9522 11.0227 14.7449 10.6875 14.3812 10.4489C14.0176 10.2102 13.5716 10.0909 13.0431 10.0909C12.6568 10.0909 12.3187 10.1534 12.0289 10.2784C11.742 10.4034 11.5176 10.5753 11.3556 10.794C11.1966 11.0128 11.117 11.2614 11.117 11.5398C11.117 11.7727 11.1724 11.973 11.2832 12.1406C11.3968 12.3054 11.5417 12.4432 11.7179 12.554C11.894 12.6619 12.0787 12.7514 12.2718 12.8224C12.465 12.8906 12.6426 12.946 12.8045 12.9886L13.6909 13.2273C13.9181 13.2869 14.171 13.3693 14.4494 13.4744C14.7306 13.5795 14.9991 13.723 15.2548 13.9048C15.5133 14.0838 15.7264 14.3139 15.894 14.5952C16.0616 14.8764 16.1454 15.2216 16.1454 15.6307C16.1454 16.1023 16.0218 16.5284 15.7747 16.9091C15.5304 17.2898 15.1724 17.5923 14.7008 17.8168C14.2321 18.0412 13.6625 18.1534 12.992 18.1534C12.367 18.1534 11.8258 18.0526 11.3684 17.8509C10.9139 17.6491 10.5559 17.3679 10.2946 17.0071C10.036 16.6463 9.88974 16.2273 9.85565 15.75H10.9466C10.975 16.0795 11.0858 16.3523 11.2789 16.5682C11.475 16.7812 11.7221 16.9403 12.0204 17.0455C12.3216 17.1477 12.6454 17.1989 12.992 17.1989C13.3954 17.1989 13.7576 17.1335 14.0787 17.0028C14.3997 16.8693 14.6539 16.6847 14.8414 16.4489C15.0289 16.2102 15.1227 15.9318 15.1227 15.6136C15.1227 15.3239 15.0417 15.0881 14.8798 14.9062C14.7179 14.7244 14.5048 14.5767 14.2406 14.4631C13.9764 14.3494 13.6909 14.25 13.3841 14.1648L12.3102 13.858C11.6284 13.6619 11.0886 13.3821 10.6909 13.0185C10.2931 12.6548 10.0943 12.179 10.0943 11.5909C10.0943 11.1023 10.2264 10.6761 10.4906 10.3125C10.7576 9.94602 11.1156 9.66193 11.5645 9.46023C12.0162 9.25568 12.5204 9.15341 13.0772 9.15341C13.6397 9.15341 14.1397 9.25426 14.5772 9.45597C15.0147 9.65483 15.3613 9.92756 15.617 10.2741C15.8755 10.6207 16.0119 11.0142 16.0261 11.4545H15.0034Z" fill="#DC0000"/>
</svg>
