<svg width="28" height="26" viewBox="0 0 28 26" fill="none" xmlns="http://www.w3.org/2000/svg">
<circle cx="13" cy="13" r="13" fill="#494949"/>
<circle cx="13" cy="13" r="10" fill="black"/>
<line y1="12.5" x2="26" y2="12.5" stroke="black" stroke-width="5"/>
<path d="M15.3368 9.27273H16.3936V15.0511C16.3936 15.6477 16.253 16.1804 15.9718 16.6491C15.6934 17.1151 15.2999 17.483 14.7914 17.7528C14.2828 18.0199 13.6863 18.1534 13.0016 18.1534C12.3169 18.1534 11.7203 18.0199 11.2118 17.7528C10.7033 17.483 10.3084 17.1151 10.0272 16.6491C9.74876 16.1804 9.60955 15.6477 9.60955 15.0511V9.27273H10.6664V14.9659C10.6664 15.392 10.7601 15.7713 10.9476 16.1037C11.1351 16.4332 11.4022 16.6932 11.7488 16.8835C12.0982 17.071 12.5158 17.1648 13.0016 17.1648C13.4874 17.1648 13.905 17.071 14.2544 16.8835C14.6039 16.6932 14.8709 16.4332 15.0556 16.1037C15.2431 15.7713 15.3368 15.392 15.3368 14.9659V9.27273Z" fill="#494949"/>
</svg>
